<svg width="89" height="117" viewBox="0 0 89 117" fill="none" xmlns="http://www.w3.org/2000/svg">
<path d="M53.8997 104.874C54.2767 105.308 54.3224 105.787 54.1396 106.3C54.1396 106.3 54.1396 106.3 54.1396 106.312C53.7969 107.259 52.6546 108.331 51.3296 109.392C51.1582 109.528 51.0097 109.654 50.8841 109.768C50.8498 109.802 50.8155 109.825 50.7813 109.859C50.7584 109.882 50.7242 109.905 50.7013 109.928C49.4677 111.068 49.936 111.319 47.72 113.624C45.1955 116.247 43.4478 116.293 42.9566 116.053C42.534 115.848 43.3907 114.456 44.3274 112.893C44.3731 112.814 44.4188 112.745 44.4645 112.665C44.5901 112.46 44.7158 112.243 44.8414 112.038C45.9494 110.156 45.6639 109.266 45.4011 106.471C45.1841 104.19 41.8486 93.7414 41.8486 93.7414L46.6919 92.9087C46.6919 92.9087 48.154 101.224 49.7532 102.513C50.6099 103.198 51.5695 103.209 52.4033 103.711C52.4604 103.745 52.5175 103.779 52.5747 103.825C53.043 104.122 53.5228 104.441 53.8997 104.874Z" fill="#FFB27D"/>
<path d="M53.8997 104.875C54.2766 105.308 54.3223 105.787 54.1395 106.3C54.1395 106.3 54.1395 106.3 54.1395 106.312C53.7169 107.259 52.6089 108.319 51.3295 109.38C51.1582 109.517 51.0097 109.643 50.884 109.768C50.8498 109.802 50.8155 109.825 50.7812 109.859C50.7584 109.882 50.7241 109.905 50.7013 109.928C49.4676 111.068 49.9359 111.319 47.7199 113.624C45.1955 116.247 43.4478 116.293 42.9566 116.053C42.5339 115.848 43.3906 114.456 44.3273 112.894C44.8185 112.711 47.1031 111.787 48.8279 109.574C50.3472 107.635 51.3638 105.148 52.4033 103.7C52.4604 103.734 52.5175 103.768 52.5746 103.814C53.043 104.122 53.5227 104.441 53.8997 104.875Z" fill="#19191E"/>
<path d="M14.8564 101.852C14.5594 103.346 12.4233 103.095 10.0474 102.513C7.67143 101.932 8.23114 102.627 4.83856 102.251C1.44597 101.875 0.429341 100.62 0.315113 100.106C0.22373 99.6616 1.89147 99.5019 3.69627 99.2966C3.92473 99.2737 4.15319 99.2395 4.37022 99.2167C6.39207 98.9658 7.87704 97.654 9.72754 96.5817C11.4752 95.5665 14.0796 91.4258 14.0796 91.4258L18.7287 91.7909C18.7287 91.7909 16.2957 95.4867 15.3476 97.095C14.7879 98.0418 14.8221 99.2966 14.8907 100.255C14.9249 100.791 14.9592 101.327 14.8564 101.852Z" fill="#FFB27D"/>
<path d="M10.0357 102.513C7.6597 101.932 8.21942 102.627 4.82684 102.251C1.43426 101.875 0.417622 100.62 0.303394 100.106C0.212011 99.6616 1.87975 99.5019 3.68456 99.2966L3.69598 99.3308C3.69598 99.3308 5.72924 100.768 8.55069 100.837C10.8467 100.894 13.2797 100.232 14.8675 100.255C14.9018 100.779 14.9361 101.316 14.8332 101.84C14.5477 103.346 12.423 103.095 10.0357 102.513Z" fill="#19191E"/>
<path d="M32.6641 72.1825L37.0047 83.8517L42.6705 99.0913C42.6705 99.0913 44.2125 99.2395 45.6861 98.8175C47.0454 98.4297 48.5989 97.403 48.5989 97.403C48.5989 97.403 47.0226 81.0342 44.0869 71.6464C43.333 69.2396 42.4877 67.289 41.5624 66.1825C37.0047 60.8099 32.6641 72.1825 32.6641 72.1825Z" fill="#013F3F"/>
<path d="M37.0732 53.6464C39.9175 52.7338 48.0391 53.9087 56.1836 55.5057L57.8856 52.6996L75.4996 51.3308C75.4996 51.3308 81.3139 64.1977 78.1269 72.3992C77.6585 73.6083 76.7333 74.3726 75.1455 74.4068C75.1455 74.4068 74.8942 74.4068 74.8828 74.4068C74.8828 74.4068 64.3966 74.3954 60.9926 74.3954C52.2313 74.3954 42.4533 68.384 41.1968 68.1331C39.1293 67.7224 38.2954 71.8517 36.2279 76.1977C34.1604 80.5437 16.7634 95.4182 16.7634 95.4182C16.7634 95.4182 14.0904 95.441 12.9824 95.0304C11.7944 94.5855 11.3604 94.0038 11.3604 94.0038C11.3604 94.0038 30.6535 55.711 37.0732 53.6464Z" fill="#025456"/>
<path d="M57.9997 28.4601C64.2709 31.9049 76.9959 39.057 77.0644 39.0114C77.0644 39.0114 81.7364 40.7681 84.3979 39.0114C88.8186 36.0798 91.1945 28.1863 83.1071 21.3992C79.0749 18.0114 76.2077 17.1901 75.7737 11.7833C75.5224 8.85171 71.5129 -0.832704 64.842 0.0570296C64.2823 0.136878 60.8554 0.296573 58.5937 1.47148C52.8366 4.49429 48.5987 27.1255 57.9997 28.4601Z" fill="#19191E"/>
<path d="M63.2547 25.5285C63.2318 25.5513 66.3388 26.6122 68.4178 25.6882C70.3711 24.8213 71.8561 21.6046 71.8332 21.6046C70.9422 21.5589 69.9599 20.7833 69.206 15.6844L68.829 15.8213L62.4551 18.1141C62.4551 18.1141 62.912 20.1559 63.2204 22.1065C63.4717 23.7376 63.6088 25.3004 63.2547 25.5285Z" fill="#FFB27D"/>
<path d="M62.4551 18.1141C62.4551 18.1141 62.912 20.1559 63.2204 22.1065C66.8871 21.4449 68.3264 17.8061 68.8405 15.8213L62.4551 18.1141Z" fill="#ED975D"/>
<path d="M61.5074 20.1445C61.5074 20.1445 70.2344 18.9696 69.4234 13.5627C68.6124 8.14448 69.1835 4.346 63.5863 4.87071C57.9777 5.38402 57.2124 7.61976 57.0411 9.49049C56.8697 11.3498 59.2228 20.3042 61.5074 20.1445Z" fill="#FFB27D"/>
<path d="M57.3604 6.51331C57.3604 6.51331 62.9461 11.3156 66.7499 11.7034C70.5537 12.0913 71.993 10.8707 71.993 10.8707C71.993 10.8707 69.7427 9.01141 68.3948 6.02281C67.995 5.13308 67.1611 4.52852 66.1902 4.44867C63.4716 4.20912 58.3313 4.10646 57.3604 6.51331Z" fill="#19191E"/>
<path d="M60.8449 6.07984C60.8449 6.07984 58.9715 7.88212 58.3889 9.22813C57.8178 10.5171 57.6465 13.6084 58.1034 14.8403C58.1034 14.8403 55.1905 9.1825 56.8354 6.44486C58.5946 3.5133 60.8449 6.07984 60.8449 6.07984Z" fill="#19191E"/>
<path d="M55.9098 38.3726C56.1725 56.0076 55.9783 52.3232 57.9088 54C58.3771 54.3992 59.6793 54.6388 61.4042 54.7528C66.8186 55.1064 76.3453 54.2167 76.6994 53.2243C77.9445 49.768 77.0649 48.6958 78.1044 43.3916C78.2186 42.8327 78.3443 42.2167 78.5042 41.5551C79.3723 37.9163 80.2176 36.6844 77.1334 30.8327C74.3348 25.5399 71.4334 21.2395 71.1707 21.3992C63.7915 25.768 63.1976 22.095 63.1976 22.095C63.1976 22.095 55.7841 29.7604 55.9098 38.3726Z" fill="white"/>
<path d="M37.0049 83.8517L42.6706 99.0913C42.6706 99.0913 44.2127 99.2395 45.6862 98.8175C47.0456 98.4297 48.5991 97.403 48.5991 97.403C48.5991 97.403 47.0227 81.0342 44.087 71.6464L37.0049 83.8517Z" fill="#025456"/>
<path d="M63.2209 22.095C63.2209 22.095 55.6247 23.384 54.7337 26.6464C53.8427 29.9087 48.5996 49.0951 48.5996 49.0951C48.5996 49.0951 52.4605 49.7909 54.2425 48.0114C56.0245 46.2319 60.4451 31.4943 60.4451 31.4943L63.2209 22.095Z" fill="white"/>
<path d="M61.416 54.7528C66.8305 55.1064 76.3571 54.2167 76.7112 53.2243C77.9563 49.7681 77.0768 48.6958 78.1163 43.3916L75.5118 36.0456C75.5118 36.0456 75.9459 44.2243 73.5243 46.3802C71.114 48.5361 63.6321 50.5323 62.4555 52.3346C61.8958 53.1901 61.5188 54.057 61.416 54.7528Z" fill="#EBF3FF"/>
<path d="M67.6182 51.308C67.6182 51.308 62.2723 50.1216 61.4156 50.5893C60.5589 51.0684 58.4457 52.7909 58.183 53.384C57.9202 53.9886 60.102 52.9277 60.8102 52.7338C61.2671 52.6084 62.4779 53.0304 63.0834 53.2357C65.6078 54.0798 67.1499 53.6464 67.1499 53.6464L67.6182 51.308Z" fill="#FFB27D"/>
<path d="M71.1935 21.3992C71.1935 21.3992 78.367 21.8441 80.8572 25.3004C84.3526 30.1711 91.2863 50.9201 87.3111 53.692C82.8334 56.8061 66.9328 54.5019 66.9328 54.5019C66.9328 54.5019 66.4073 52.038 67.1384 50.8403C67.8694 49.6426 79.8406 47.7148 80.3889 47.1673C80.9372 46.6198 73.4895 36.422 73.4895 34.7681C73.4895 33.1141 71.1935 21.3992 71.1935 21.3992Z" fill="white"/>
<path d="M61.1529 52.0836C61.1529 52.0836 60.0334 53.5209 59.6679 53.7034C59.3024 53.8745 59.0625 53.8289 59.0625 53.8289L59.8164 52.4715L61.1529 52.0836Z" fill="#FFB27D"/>
<path d="M61.4157 50.6007L58.1602 52.1749C58.1602 52.1749 58.2972 52.403 58.697 52.3802C59.0968 52.3574 60.1135 51.9924 60.1135 51.9924L61.4157 50.6007Z" fill="#FFB27D"/>
</svg>
