<svg width="28" height="28" viewBox="0 0 28 28" fill="none" xmlns="http://www.w3.org/2000/svg">
<path d="M16.4546 27.8647H6.99463L10.1479 21.1817H16.4546C18.4612 21.1817 20.0665 19.5959 20.0665 17.6703C20.0665 15.7447 18.4612 14.1589 16.4546 14.1589H13.4733L13.5306 13.989L10.4919 7.41925H16.5119C22.3025 7.41925 27.0038 12.0067 27.0038 17.6703C27.0038 23.3338 22.2452 27.8647 16.4546 27.8647Z" fill="#008D96"/>
<path d="M14.0466 14.1023L10.7213 21.1251L7.56795 27.8647H0.687995H0L0.687995 26.3922L6.53595 13.989L3.49731 7.41926L0 0H7.56795L11.0653 7.41926L14.1039 13.9324L14.0466 14.1023Z" fill="#F5AF15"/>
</svg>
